<svg xmlns="http://www.w3.org/2000/svg" viewBox="0 0 1200 280" width="1200" height="280">
  <title>VaultGate — Your Obsidian vault, accessible to any AI assistant</title>
  <defs>
    <linearGradient id="bg-l" x1="0%" y1="0%" x2="100%" y2="100%">
      <stop offset="0%" stop-color="#7c3aed"/>
      <stop offset="100%" stop-color="#4c1d95"/>
    </linearGradient>
    <linearGradient id="gem-top-l" x1="0%" y1="0%" x2="100%" y2="100%">
      <stop offset="0%" stop-color="#ede9fe"/>
      <stop offset="100%" stop-color="#c4b5fd"/>
    </linearGradient>
    <linearGradient id="gem-mid-l" x1="0%" y1="0%" x2="100%" y2="100%">
      <stop offset="0%" stop-color="#8b5cf6"/>
      <stop offset="100%" stop-color="#6d28d9"/>
    </linearGradient>
    <radialGradient id="glow-l" cx="25%" cy="50%" r="40%">
      <stop offset="0%" stop-color="#7c3aed" stop-opacity="0.10"/>
      <stop offset="100%" stop-color="#7c3aed" stop-opacity="0"/>
    </radialGradient>
  </defs>

  <!-- Background -->
  <rect width="1200" height="280" fill="#fafafa"/>
  <!-- Soft glow behind gem -->
  <rect width="1200" height="280" fill="url(#glow-l)"/>

  <!-- Gem icon: origin at (44,44), scale(3) maps 64px viewBox to 192px -->
  <g transform="translate(44, 44) scale(3)">
    <circle cx="32" cy="32" r="30" fill="url(#bg-l)"/>
    <circle cx="32" cy="32" r="26" fill="none" stroke="#a78bfa" stroke-width="1" opacity="0.45"/>
    <polygon points="32,11 42,25 32,21 22,25" fill="url(#gem-top-l)"/>
    <polygon points="22,25 32,21 28,41" fill="#a78bfa" opacity="0.9"/>
    <polygon points="42,25 36,41 32,21" fill="#7c3aed" opacity="0.85"/>
    <polygon points="22,25 28,41 36,41 42,25 32,21" fill="url(#gem-mid-l)" opacity="0.7"/>
    <polygon points="28,41 36,41 32,53" fill="#4c1d95"/>
    <polygon points="32,11 37,20 32,18 27,20" fill="white" opacity="0.28"/>
  </g>

  <!-- Wordmark -->
  <text x="272" y="134"
    font-family="system-ui, -apple-system, BlinkMacSystemFont, 'Segoe UI', sans-serif"
    font-size="84" font-weight="700" fill="#1a0533" letter-spacing="-2">VaultGate</text>

  <!-- Tagline -->
  <text x="274" y="178"
    font-family="system-ui, -apple-system, BlinkMacSystemFont, 'Segoe UI', sans-serif"
    font-size="25" font-weight="400" fill="#6b21a8">Your Obsidian vault, accessible to any AI assistant</text>

  <!-- Attribute line -->
  <text x="274" y="215"
    font-family="system-ui, -apple-system, BlinkMacSystemFont, 'Segoe UI', sans-serif"
    font-size="19" font-weight="400" fill="#9ca3af" letter-spacing="0.8">locally · privately · no plugins required</text>

  <!-- Decorative portal rings (right) -->
  <circle cx="1090" cy="140" r="90" fill="none" stroke="#7c3aed" stroke-width="1.5" opacity="0.15"/>
  <circle cx="1090" cy="140" r="65" fill="none" stroke="#7c3aed" stroke-width="1.5" opacity="0.20"/>
  <circle cx="1090" cy="140" r="40" fill="none" stroke="#7c3aed" stroke-width="2"   opacity="0.28"/>
  <circle cx="1090" cy="140" r="11" fill="#7c3aed" opacity="0.32"/>
  <!-- Cardinal spokes -->
  <line x1="1090" y1="50"  x2="1090" y2="75"  stroke="#7c3aed" stroke-width="1.5" opacity="0.18"/>
  <line x1="1090" y1="205" x2="1090" y2="230" stroke="#7c3aed" stroke-width="1.5" opacity="0.18"/>
  <line x1="1000" y1="140" x2="1025" y2="140" stroke="#7c3aed" stroke-width="1.5" opacity="0.18"/>
  <line x1="1155" y1="140" x2="1180" y2="140" stroke="#7c3aed" stroke-width="1.5" opacity="0.18"/>
  <!-- Diagonal spokes -->
  <line x1="1026" y1="76"  x2="1043" y2="93"  stroke="#7c3aed" stroke-width="1" opacity="0.12"/>
  <line x1="1154" y1="76"  x2="1137" y2="93"  stroke="#7c3aed" stroke-width="1" opacity="0.12"/>
  <line x1="1026" y1="204" x2="1043" y2="187" stroke="#7c3aed" stroke-width="1" opacity="0.12"/>
  <line x1="1154" y1="204" x2="1137" y2="187" stroke="#7c3aed" stroke-width="1" opacity="0.12"/>
  <!-- Dashed connector from text block to portal -->
  <line x1="960" y1="140" x2="1000" y2="140" stroke="#7c3aed" stroke-width="1" opacity="0.10" stroke-dasharray="4 5"/>
</svg>
